<svg width="257" height="257" viewBox="0 0 257 257" fill="none" xmlns="http://www.w3.org/2000/svg">
<circle cx="128" cy="128" r="128" transform="matrix(-0.584328 -0.811517 -0.811517 0.584328 307 158)" fill="url(#paint0_radial_2503_5279)"/>
<g opacity="0.15" clip-path="url(#clip0_2503_5279)">
<path d="M172 149.157C172 149.157 158.596 147.166 151.513 146.594C144.712 146.046 136.651 145.73 128.004 145.73C119.357 145.73 111.296 146.046 104.496 146.594C97.4116 147.173 84.0098 149.936 84.0098 149.936V153.41C84.0098 156.497 103.707 159.005 128.004 159.005C152.3 159.005 171.998 156.497 171.998 153.41L172 149.157Z" fill="white" fill-opacity="0.4"/>
<path d="M114.477 103.089C98.4121 108.829 87.684 124.082 87.6831 141.184V146.911C93.416 145.538 99.2611 144.688 105.147 144.372C105.107 143.273 105.087 142.166 105.085 141.051C105.091 126.024 108.708 112.502 114.477 103.089Z" fill="white" fill-opacity="0.4"/>
<path d="M168.323 141.184C168.337 131.8 165.081 122.706 159.12 115.473C161.704 123.751 162.992 132.381 162.937 141.055C162.937 142.633 162.897 144.194 162.816 145.736C164.651 146.019 166.468 146.406 168.259 146.894L168.323 141.184Z" fill="white" fill-opacity="0.8"/>
<path d="M168.323 141.184C168.337 131.8 165.081 122.706 159.12 115.473C161.704 123.751 162.992 132.381 162.937 141.055C162.937 142.633 162.897 144.194 162.816 145.736C164.651 146.019 166.468 146.406 168.259 146.894L168.323 141.184Z" fill="white" fill-opacity="0.8"/>
<path d="M159.12 115.471C148.317 102.34 130.475 97.391 114.479 103.089C108.706 112.501 105.091 126.024 105.091 141.053C105.091 142.168 105.111 143.275 105.152 144.373C111.156 143.908 118.106 143.621 125.549 143.569C125.549 143.569 127.24 143.569 128.008 143.569C139.649 143.429 151.285 144.156 162.82 145.743C162.898 144.2 162.938 142.639 162.941 141.062C162.996 132.385 161.706 123.752 159.12 115.471Z" fill="white" fill-opacity="0.8"/>
<path fill-rule="evenodd" clip-rule="evenodd" d="M141.839 103.213L141.667 102.13C141.485 100.952 140.643 99.984 139.504 99.6433C132.059 97.4522 124.142 97.4522 116.697 99.6433C115.558 99.9846 114.717 100.953 114.536 102.13L114.349 103.304C114.392 103.232 114.436 103.161 114.479 103.09C123.546 99.86 133.205 100.051 141.839 103.213Z" fill="white" fill-opacity="0.8"/>
<path d="M128.008 143.229C127.238 143.229 126.474 143.229 125.716 143.229H125.631H125.547C102.393 143.392 84.0116 145.83 84.0116 148.815V153.141C83.9741 153.395 84.028 153.654 84.1636 153.871C85.3396 152.985 86.6912 152.363 88.1274 152.046C91.7852 151.153 95.5029 150.529 99.251 150.178C101.38 149.944 103.506 150.64 105.087 152.088C107.982 154.746 111.764 156.219 115.689 156.219H140.319C144.243 156.219 148.026 154.745 150.921 152.088C152.502 150.638 154.629 149.941 156.759 150.176C160.506 150.527 164.223 151.151 167.88 152.044C169.241 152.306 170.525 152.87 171.64 153.693C171.704 153.757 171.777 153.813 171.833 153.871C171.969 153.653 172.024 153.393 171.987 153.138V148.812C172 145.734 152.302 143.229 128.008 143.229Z" fill="white" fill-opacity="0.8"/>
<path d="M137.274 130.383L127.996 136.109V143.548L137.274 130.383Z" fill="#6E6F70" fill-opacity="0.8"/>
<path d="M128.006 143.548V136.109L118.728 130.383L128.006 143.548Z" fill="#0A0A0A" fill-opacity="0.8"/>
<path d="M118.728 126.985L128.006 132.364V111.936L118.728 126.985Z" fill="#0A0A0A" fill-opacity="0.8"/>
<path d="M137.274 126.985L127.996 111.934V121.603V132.362L137.274 126.983V126.985Z" fill="#6E6F70" fill-opacity="0.8"/>
</g>
<defs>
<radialGradient id="paint0_radial_2503_5279" cx="0" cy="0" r="1" gradientUnits="userSpaceOnUse" gradientTransform="translate(56.3733 126.867) rotate(2.0811) scale(195.729 206.813)">
<stop offset="0.412964" stop-color="#0E0C11"/>
<stop offset="0.601387" stop-color="#0B0C10"/>
<stop offset="1" stop-color="#5A16B2"/>
</radialGradient>
<clipPath id="clip0_2503_5279">
<rect width="88" height="61.0133" fill="white" transform="translate(84 98)"/>
</clipPath>
</defs>
</svg>
